<svg xmlns="http://www.w3.org/2000/svg" viewBox="0 0 35.78 35.78"><defs><style>.cls-1{fill:#fff;}</style></defs><g id="Capa_2" data-name="Capa 2"><g id="Capa_1-2" data-name="Capa 1"><rect width="35.78" height="35.78"/><path class="cls-1" d="M18.19,5.83c6.88,0,10.66,4.24,11.3,9.76,0,.19,0-.19,0,0l-6,.26c0-.18,0,.17,0,0-.48-2.37-1.92-4.45-5.29-4.45s-5.42,2.54-5.42,6.49,2,6.49,5.42,6.49,4.79-2.05,5.28-4.4c0-.19,0,.2,0,0l6.05.29c0,.2,0-.2,0,0-.65,5.49-4.43,9.67-11.29,9.67S6.28,25,6.28,17.89,11.4,5.83,18.19,5.83Z"/></g></g></svg>