<svg xmlns="http://www.w3.org/2000/svg" viewBox="0 0 40.87 40.87"><defs><style>.cls-1{fill:#fff;}</style></defs><g id="Capa_2" data-name="Capa 2"><g id="Capa_1-2" data-name="Capa 1"><circle cx="20.43" cy="20.43" r="20.43"/><path class="cls-1" d="M20.67,11c5.42,0,8.39,3.34,8.89,7.68,0,.14,0-.15,0,0l-4.75.2h0a4,4,0,0,0-4.17-3.5c-2.7,0-4.26,2-4.26,5.1s1.56,5.11,4.26,5.11a3.94,3.94,0,0,0,4.16-3.46h0l4.76.23c0,.16,0-.16,0,0-.52,4.32-3.49,7.61-8.89,7.61a9.1,9.1,0,0,1-9.37-9.49A9.09,9.09,0,0,1,20.67,11Z"/></g></g></svg>