<?xml version="1.0" encoding="UTF-8"?><svg id="Capa_2" xmlns="http://www.w3.org/2000/svg" viewBox="0 0 433.72 34.87"><defs><style>.cls-1{fill:#eae9e5;}</style></defs><g id="Capa_1-2"><g><path class="cls-1" d="M17.14,.16c9.91,0,15.35,6.11,16.27,14.05,.03,.27-.02-.27,0,0l-8.7,.37c-.04-.26,.05,.25,0,0-.69-3.41-2.77-6.4-7.62-6.4s-7.8,3.66-7.8,9.34,2.87,9.34,7.8,9.34,6.89-2.95,7.6-6.32c.06-.28-.04,.28,0,0l8.71,.41c-.02,.29,.03-.29,0,0-.94,7.9-6.38,13.93-16.26,13.93S0,27.81,0,17.51,7.38,.16,17.14,.16Z"/><path class="cls-1" d="M148.31,0c9.91,0,15.35,6.11,16.27,14.05,.03,.27-.02-.27,0,0l-8.7,.37c-.04-.26,.05,.25,0,0-.69-3.41-2.77-6.4-7.62-6.4s-7.8,3.66-7.8,9.34,2.87,9.34,7.8,9.34,6.89-2.95,7.6-6.32c.06-.28-.04,.28,0,0l8.71,.41c-.02,.29,.03-.29,0,0-.94,7.9-6.38,13.93-16.26,13.93s-17.14-7.06-17.14-17.35S138.54,0,148.31,0Z"/><path class="cls-1" d="M52.85,34.87c-9.71,0-17.35-7.06-17.35-17.35S43.14,.16,52.85,.16s17.35,7.06,17.35,17.35-7.64,17.35-17.35,17.35Zm0-26.75c-4.94,0-8.07,3.72-8.07,9.39s3.13,9.39,8.07,9.39,8.07-3.72,8.07-9.39-3.13-9.39-8.07-9.39Z"/><path class="cls-1" d="M82.83,.8V26.8h16.56v7.43h-25.58V.8h9.02Z"/><path class="cls-1" d="M129.58,34.23h-26.32V.8h25.85v7.43h-16.98v5.47h13.11v7.32h-13.11v5.78h17.46v7.43Z"/><path class="cls-1" d="M176.96,34.23V8.23h-11.46V.8h32.06v7.43h-11.62v26.01h-8.97Z"/><path class="cls-1" d="M210.44,.8V34.23h-9.02V.8h9.02Z"/><path class="cls-1" d="M225.82,34.23L212.98,.8h9.45l8.28,22.24h.21L239.2,.8h8.97l-12.84,33.44h-9.5Z"/><path class="cls-1" d="M264.98,34.87c-9.71,0-17.35-7.06-17.35-17.35S255.27,.16,264.98,.16s17.35,7.06,17.35,17.35-7.64,17.35-17.35,17.35Zm0-26.75c-4.94,0-8.07,3.72-8.07,9.39s3.13,9.39,8.07,9.39,8.07-3.72,8.07-9.39-3.13-9.39-8.07-9.39Z"/><path class="cls-1" d="M290.05,25.1h0c2.52,0,4.56,2.04,4.56,4.56h0c0,2.52-2.04,4.56-4.56,4.56h0c-2.52,0-4.56-2.04-4.56-4.56h0c0-2.52,2.04-4.56,4.56-4.56Z"/><path class="cls-1" d="M325,30.52h.21l7.27-29.72h3.13l-8.49,33.44h-4.19l-7.38-28.23h-.21l-7.48,28.23h-4.19L295.17,.8h3.24l7.43,29.56h.21l7.8-29.56h3.18l7.96,29.72Z"/><path class="cls-1" d="M354.12,34.87c-9.77,0-16.4-7.06-16.4-17.35S344.36,.16,354.12,.16s16.4,7.06,16.4,17.35-6.63,17.35-16.4,17.35Zm0-31.9c-7.85,0-12.9,5.68-12.9,14.54s5.04,14.54,12.9,14.54,12.9-5.68,12.9-14.54-5.04-14.54-12.9-14.54Z"/><path class="cls-1" d="M397.85,34.23c-.64-.9-1.11-3.45-1.38-7.54-.21-3.66-1.96-6.58-6.95-6.58h-10.4v14.12h-3.29V.8h12.63c8.44,0,12.47,3.87,12.47,9.66,0,5.2-3.61,7.8-7.7,8.28,4.25,.8,6.21,3.45,6.53,7.38,.42,4.88,.58,6.9,1.7,8.12h-3.61Zm-9.29-16.88c6.21,0,8.92-2.44,8.92-6.9,0-4.14-2.71-6.85-8.92-6.85h-9.45v13.75h9.45Z"/><path class="cls-1" d="M429.58,34.23l-15.02-16.56-4.19,4.14v12.42h-3.34V.8h3.34V18.15L427.77,.8h4.09l-14.81,14.81,16.67,18.63h-4.14Z"/></g></g></svg>