<?xml version="1.0" encoding="UTF-8"?><svg id="Capa_2" xmlns="http://www.w3.org/2000/svg" xmlns:xlink="http://www.w3.org/1999/xlink" viewBox="0 0 286.12 19.92"><defs><style>.cls-1{fill:none;}.cls-2{clip-path:url(#clippath);}.cls-3{fill:#eae9e5;}.cls-4{fill:#e4e3df;}.cls-5{clip-path:url(#clippath-1);}</style><clipPath id="clippath"><rect class="cls-1" x="0" y=".75" width="215.66" height="17.34"/></clipPath><clipPath id="clippath-1"><rect class="cls-1" x="0" y=".75" width="215.66" height="17.34"/></clipPath></defs><g id="Layer_1"><g><g><path class="cls-4" d="M245.88,10.07c.99,.23,1.74,.58,2.24,1.06,.84,.8,1.27,1.89,1.27,3.29,0,.87-.17,1.67-.51,2.39-.34,.72-.81,1.29-1.4,1.71-.47,.31-1.01,.54-1.62,.67-.61,.14-1.39,.21-2.35,.21h-7.7V.62h6.42c1.28,0,2.32,.08,3.12,.25,.79,.17,1.44,.45,1.95,.83,1.21,.92,1.82,2.26,1.82,4.02,0,1.31-.42,2.4-1.27,3.26-.46,.47-1.11,.83-1.97,1.09Zm-5.5-6.04v4.35h1.13c1.13,0,1.92-.21,2.38-.62,.39-.37,.59-.88,.59-1.55,0-.91-.32-1.52-.96-1.83-.48-.23-1.17-.34-2.08-.34h-1.06Zm0,7.67v4.42h1.65c.94,0,1.62-.15,2.02-.45,.48-.36,.72-.93,.72-1.71,0-.93-.33-1.56-1-1.91-.31-.17-.64-.27-.99-.3-.36-.03-.8-.04-1.33-.04h-1.06Z"/><path class="cls-4" d="M259.62,6.34h4.28V14.55c0,1.37-.23,2.4-.69,3.09-.53,.81-1.32,1.4-2.37,1.79-.85,.32-1.83,.48-2.94,.48-2.02,0-3.57-.48-4.65-1.44-.95-.84-1.43-2.15-1.43-3.92V6.34h4.28v7.91c0,.46,.07,.85,.21,1.17,.13,.28,.34,.51,.63,.69,.29,.17,.61,.26,.96,.26,.65,0,1.14-.25,1.46-.76,.17-.28,.26-.63,.26-1.07V6.34Zm-4.84-6.34c.61,0,1.14,.23,1.57,.7,.37,.4,.55,.89,.55,1.46,0,.66-.24,1.2-.71,1.62-.41,.36-.89,.54-1.44,.54-.64,0-1.18-.23-1.61-.7-.37-.39-.55-.88-.55-1.47,0-.65,.24-1.19,.71-1.61,.41-.36,.91-.54,1.49-.54Zm6.19,0c.61,0,1.14,.23,1.57,.7,.37,.4,.55,.89,.55,1.46,0,.66-.24,1.2-.71,1.62-.41,.36-.89,.54-1.44,.54-.64,0-1.18-.23-1.61-.7-.37-.39-.55-.88-.55-1.47,0-.65,.24-1.19,.71-1.61,.41-.36,.91-.54,1.49-.54Z"/><path class="cls-4" d="M276.49,8.68h9.61c0,.41,.01,.76,.01,1.03,0,3.03-1.04,5.49-3.11,7.4-1.94,1.77-4.23,2.65-6.89,2.65-1.37,0-2.67-.26-3.91-.77-1.24-.51-2.33-1.24-3.25-2.19-1.78-1.82-2.67-4.08-2.67-6.79s.97-5.18,2.92-7.07c1.86-1.8,4.15-2.7,6.86-2.7,2.02,0,3.88,.54,5.58,1.61,.86,.54,1.64,1.24,2.32,2.09l-3.45,2.7c-1.16-1.45-2.59-2.17-4.29-2.17-1.93,0-3.37,.77-4.35,2.31-.65,1.03-.98,2.12-.98,3.27,0,1.75,.65,3.18,1.94,4.28,1.02,.86,2.21,1.29,3.56,1.29s2.57-.49,3.56-1.47c.5-.48,.87-1.07,1.13-1.79h-4.61v-3.69Z"/></g><g class="cls-2"><g class="cls-5"><path class="cls-3" d="M8.52,.83c4.93,0,7.63,3.04,8.09,6.99,.01,.13,0-.13,0,0l-4.33,.18c-.02-.13,.02,.12,0,0-.34-1.7-1.38-3.18-3.79-3.18s-3.88,1.82-3.88,4.64,1.43,4.64,3.88,4.64,3.43-1.47,3.78-3.14c.03-.14-.02,.14,0,0l4.33,.2c0,.14,.01-.14,0,0-.47,3.93-3.17,6.93-8.09,6.93S0,14.58,0,9.45,3.67,.83,8.52,.83"/><path class="cls-3" d="M73.75,.75c4.93,0,7.63,3.04,8.09,6.99,.01,.13,0-.13,0,0l-4.33,.18c-.02-.13,.02,.12,0,0-.34-1.7-1.38-3.18-3.79-3.18s-3.88,1.82-3.88,4.64,1.43,4.64,3.88,4.64,3.43-1.47,3.78-3.14c.03-.14-.02,.14,0,0l4.33,.2c0,.14,.01-.14,0,0-.47,3.93-3.17,6.93-8.09,6.93s-8.52-3.51-8.52-8.63S68.89,.75,73.75,.75"/><path class="cls-3" d="M26.28,18.09c-4.83,0-8.63-3.51-8.63-8.63S21.45,.83,26.28,.83s8.63,3.51,8.63,8.63-3.8,8.63-8.63,8.63h0Zm0-13.3c-2.46,0-4.01,1.85-4.01,4.67s1.56,4.67,4.01,4.67,4.01-1.85,4.01-4.67-1.56-4.67-4.01-4.67"/><polygon class="cls-3" points="41.19 1.14 41.19 14.07 49.42 14.07 49.42 17.77 36.7 17.77 36.7 1.14 41.19 1.14"/><polygon class="cls-3" points="64.43 17.77 51.34 17.77 51.34 1.14 64.2 1.14 64.2 4.84 55.76 4.84 55.76 7.56 62.27 7.56 62.27 11.2 55.76 11.2 55.76 14.07 64.44 14.07 64.44 17.77 64.43 17.77"/><polygon class="cls-3" points="87.99 17.77 87.99 4.84 82.29 4.84 82.29 1.14 98.23 1.14 98.23 4.84 92.46 4.84 92.46 17.77 88 17.77 87.99 17.77"/><rect class="cls-3" x="100.15" y="1.14" width="4.49" height="16.62"/><polygon class="cls-3" points="112.29 17.77 105.9 1.14 110.6 1.14 114.72 12.2 114.82 12.2 118.94 1.14 123.4 1.14 117.02 17.77 112.29 17.77 112.29 17.77"/><path class="cls-3" d="M131.76,18.09c-4.83,0-8.63-3.51-8.63-8.63s3.8-8.63,8.63-8.63,8.63,3.51,8.63,8.63-3.8,8.63-8.63,8.63h0Zm0-13.3c-2.46,0-4.01,1.85-4.01,4.67s1.56,4.67,4.01,4.67,4.01-1.85,4.01-4.67-1.56-4.67-4.01-4.67"/><path class="cls-3" d="M144.22,13.23h0c1.25,0,2.27,1.01,2.27,2.27s-1.01,2.27-2.27,2.27-2.27-1.01-2.27-2.27,1.01-2.27,2.27-2.27"/><polygon class="cls-3" points="161.6 15.92 161.71 15.92 165.32 1.14 166.88 1.14 162.66 17.77 160.57 17.77 156.9 3.74 156.8 3.74 153.08 17.77 151 17.77 146.77 1.14 148.38 1.14 152.08 15.84 152.18 15.84 156.06 1.14 157.64 1.14 161.6 15.92 161.6 15.92"/><path class="cls-3" d="M176.08,18.09c-4.86,0-8.15-3.51-8.15-8.63s3.3-8.63,8.15-8.63,8.15,3.51,8.15,8.63-3.3,8.63-8.15,8.63h0Zm0-15.86c-3.9,0-6.41,2.82-6.41,7.23s2.51,7.23,6.41,7.23,6.41-2.82,6.41-7.23-2.51-7.23-6.41-7.23"/><path class="cls-3" d="M197.83,17.77c-.32-.45-.55-1.72-.69-3.75-.1-1.82-.97-3.27-3.46-3.27h-5.17v7.02h-1.64V1.14h6.28c4.2,0,6.2,1.92,6.2,4.8,0,2.59-1.8,3.88-3.83,4.12,2.11,.4,3.09,1.72,3.25,3.67,.21,2.43,.29,3.43,.85,4.04h-1.8Zm-4.62-8.4c3.09,0,4.44-1.21,4.44-3.43,0-2.06-1.35-3.41-4.44-3.41h-4.7v6.84h4.7Z"/><polygon class="cls-3" points="213.6 17.77 206.14 9.53 204.05 11.59 204.05 17.77 202.39 17.77 202.39 1.14 204.05 1.14 204.05 9.77 212.7 1.14 214.74 1.14 207.37 8.51 215.66 17.77 213.6 17.77 213.6 17.77"/></g></g></g></g></svg>