<svg xmlns="http://www.w3.org/2000/svg" viewBox="0 0 36.08 15.83"><g id="Capa_2" data-name="Capa 2"><g id="Capa_1-2" data-name="Capa 1"><path d="M11.46,5.33a5.87,5.87,0,0,0-1.47-1A3.4,3.4,0,0,0,8.51,4a3.09,3.09,0,0,0-2.46,1,3.94,3.94,0,0,0-.92,2.78,3.74,3.74,0,0,0,1,2.7,3.27,3.27,0,0,0,2.56,1,3.71,3.71,0,0,0,1.5-.32,4.51,4.51,0,0,0,1.32-1v4.53a10.85,10.85,0,0,1-1.89.79,8.36,8.36,0,0,1-1.92.23A7.24,7.24,0,0,1,.94,12a8.35,8.35,0,0,1-.7-1.91A9.8,9.8,0,0,1,0,7.88,7.79,7.79,0,0,1,2.15,2.19,7.43,7.43,0,0,1,7.71,0a8.89,8.89,0,0,1,2,.23,6.73,6.73,0,0,1,1.72.69Z"/><path d="M29.35,7.91a7.34,7.34,0,0,1-.63,3,7.88,7.88,0,0,1-1.8,2.58,8.73,8.73,0,0,1-9,1.74,8.37,8.37,0,0,1-2.68-1.73,7.07,7.07,0,0,1-1.76-2.59,7.14,7.14,0,0,1-.63-3,7.55,7.55,0,0,1,.63-3.06,7.27,7.27,0,0,1,1.77-2.58A8.14,8.14,0,0,1,17.9.56a9.28,9.28,0,0,1,6.35,0,8.14,8.14,0,0,1,2.67,1.71,6.78,6.78,0,0,1,1.8,2.58A7.55,7.55,0,0,1,29.35,7.91Zm-5.18,0a3.83,3.83,0,0,0-.84-2.61,2.92,2.92,0,0,0-2.25-1,2.84,2.84,0,0,0-2.26,1A3.76,3.76,0,0,0,18,7.91a3.83,3.83,0,0,0,.81,2.58,3.18,3.18,0,0,0,4.57,0A3.91,3.91,0,0,0,24.17,7.91Z"/><path d="M30.18,12.87a2.87,2.87,0,0,1,2.93-2.94,2.89,2.89,0,0,1,2.14.85,2.84,2.84,0,0,1,.83,2.09,2.85,2.85,0,0,1-.83,2.1,3,3,0,0,1-2.14.86A2.92,2.92,0,0,1,31,15,2.85,2.85,0,0,1,30.18,12.87Z"/></g></g></svg>