<svg xmlns="http://www.w3.org/2000/svg" viewBox="0 0 14.52 12.02"><g id="Capa_2" data-name="Capa 2"><g id="Capa_1-2" data-name="Capa 1"><path d="M8.81,4.81A3.48,3.48,0,0,0,7.66,4a2.83,2.83,0,0,0-1.23-.28,2.16,2.16,0,0,0-1.62.63A2.23,2.23,0,0,0,4.2,6a2.22,2.22,0,0,0,.58,1.62,2.14,2.14,0,0,0,1.57.59A3.27,3.27,0,0,0,7.57,8,7.08,7.08,0,0,0,8.9,7.16l-.13,4.31a7.47,7.47,0,0,1-1.35.4A5.92,5.92,0,0,1,6.08,12a6.66,6.66,0,0,1-1.62-.2,5,5,0,0,1-1.39-.52A6.25,6.25,0,0,1,.78,9.09,6,6,0,0,1,0,6,6,6,0,0,1,.45,3.65,5.65,5.65,0,0,1,1.73,1.71,5.5,5.5,0,0,1,3.7.43,6.59,6.59,0,0,1,6.12,0,7.36,7.36,0,0,1,7.51.14a6.86,6.86,0,0,1,1.3.44Z"/><path d="M10.07,10.07a1.73,1.73,0,0,1,.66-1.34,2.27,2.27,0,0,1,1.56-.55,2.35,2.35,0,0,1,1.59.55,1.77,1.77,0,0,1,.64,1.34,1.7,1.7,0,0,1-.64,1.32,2.34,2.34,0,0,1-1.59.56,2.38,2.38,0,0,1-1.59-.56A1.68,1.68,0,0,1,10.07,10.07Z"/></g></g></svg>